<?xml version="1.0" standalone="no"?>
<!DOCTYPE svg PUBLIC "-//W3C//DTD SVG 20010904//EN"
 "http://www.w3.org/TR/2001/REC-SVG-20010904/DTD/svg10.dtd">
<svg version="1.0" xmlns="http://www.w3.org/2000/svg"
 width="735.000000pt" height="735.000000pt" viewBox="0 0 735.000000 735.000000"
 preserveAspectRatio="xMidYMid meet">
<metadata>
Created by potrace 1.14, written by Peter Selinger 2001-2017
</metadata>
<g transform="translate(0.000000,735.000000) scale(0.100000,-0.100000)"
fill="#000000" stroke="none">
<path d="M0 3675 l0 -3675 3675 0 3675 0 0 3675 0 3675 -3675 0 -3675 0 0
-3675z m2200 -215 c0 -82 3 -150 8 -150 4 1 52 68 107 150 l100 150 118 0 118
0 -22 -32 c-13 -18 -67 -93 -121 -166 l-99 -133 133 -221 c130 -217 133 -220
144 -192 6 16 60 190 119 387 l108 357 133 0 132 0 11 -32 c5 -18 55 -184 111
-368 56 -184 107 -354 115 -378 l14 -43 -116 3 -117 3 -20 85 -21 85 -114 0
-114 0 -20 -87 -20 -88 -211 0 -211 0 -88 156 c-98 172 -93 168 -146 85 -29
-45 -31 -54 -31 -144 l0 -97 -105 0 -105 0 0 410 0 410 105 0 105 0 0 -150z
m1454 113 c6 -40 36 -280 57 -468 l13 -110 12 60 c7 33 27 132 44 220 17 88
41 200 52 248 l20 88 91 -3 92 -3 38 -175 c21 -96 48 -233 61 -305 15 -84 25
-121 29 -105 3 14 20 152 38 308 l33 282 104 0 105 0 -6 -27 c-3 -16 -34 -200
-68 -410 l-64 -383 -136 0 c-134 0 -137 1 -142 23 -8 33 -74 383 -84 447 l-9
55 -8 -55 c-8 -52 -71 -400 -81 -447 -5 -22 -9 -23 -140 -23 -74 0 -135 2
-135 4 0 3 -31 184 -70 403 -38 219 -70 401 -70 406 0 4 49 7 109 7 l109 0 6
-37z m1424 -366 c67 -221 122 -406 122 -410 0 -4 -51 -7 -113 -7 l-113 0 -20
88 -19 87 -115 0 -115 0 -20 -87 -20 -88 -112 0 -112 0 9 28 c5 15 57 185 115
377 58 193 111 365 116 383 l11 32 132 0 132 0 122 -403z m535 186 c58 -120
118 -245 132 -278 24 -57 25 -58 20 -20 -16 125 -25 263 -25 381 l0 134 105 0
105 0 0 -410 0 -410 -110 0 -110 0 -94 188 c-51 103 -110 227 -131 275 -21 48
-39 86 -40 85 -2 -2 3 -55 10 -118 8 -63 14 -186 15 -272 l0 -158 -105 0 -105
0 0 410 0 410 113 0 113 0 107 -217z"/>
<path d="M3037 3440 c-4 -12 -43 -183 -65 -288 -4 -22 -3 -23 69 -20 59 2 74
6 72 18 -12 70 -72 302 -76 290z"/>
<path d="M4782 3297 c-18 -83 -33 -155 -32 -159 0 -5 32 -8 70 -8 53 0 70 3
70 14 0 18 -58 266 -68 288 -4 11 -19 -37 -40 -135z"/>
</g>
</svg>
